<svg xmlns="http://www.w3.org/2000/svg" width="57" height="52.906" viewBox="0 0 57 52.906">
  <g id="gsap" transform="translate(-2528 6712.906)">
    <circle id="Ellipse_62" data-name="Ellipse 62" cx="15.5" cy="15.5" r="15.5" transform="translate(2540.161 -6709)"/>
    <g id="gsap-greensock" transform="translate(2535.178 -6712.906)">
      <path id="Path_61313" data-name="Path 61313" d="M5.4,17.445A25.333,25.333,0,0,0,.56,21.191c-.617.731-.8-.411-.16-2.307a12.567,12.567,0,0,1,3.929-5.39,40.955,40.955,0,0,1,5.71-3.38,56.582,56.582,0,0,1,8.725-2.992c.343-.091-.411.571-.525.936C17.644,9.793,5.79,17.239,5.79,17.239ZM22.1,38.39c.206,1.233.023,1.325-1.256,1.485a3.32,3.32,0,0,1-2.558-.64,1.442,1.442,0,0,1-.069-1.667,3.774,3.774,0,0,0,.525-1.051,2.559,2.559,0,0,1,.3-.777c.091-.16.114-.32.137-1.439s0-3.221.114-4.111c.114-.914,4.066.411,4.066.411s-.937,2.33-1.188,2.9a5.747,5.747,0,0,0-.228,1.9,1.53,1.53,0,0,1-.16.708c-.069.023.228.617.091.959A4.443,4.443,0,0,0,22.1,38.39ZM23.606,3.466A7.538,7.538,0,0,1,23.789.611c.571-.777,3.586-.868,4.226.046a3.97,3.97,0,0,1,.206,1.987c-.046.617-.206,1.941-.228,2.376-.023.32-3.335.822-4.066-.046a5.09,5.09,0,0,1-.32-1.507Zm6.715,32.708A14.733,14.733,0,0,0,33.5,37.727c.708.366.525,1.074-.662,1.279a22.411,22.411,0,0,1-3.472-.183c-1,0-3.243.114-3.837-.3a1.254,1.254,0,0,1-.388-1.371,5.676,5.676,0,0,0,.5-2.535,8.589,8.589,0,0,0-.662-2.261c-.343-.845-.594-2.924-.274-3.038s.228,0,.64.091a6.65,6.65,0,0,0,1.759.228,13.463,13.463,0,0,0,2.216-.206c.343-.069.617-.137.5.571a22.806,22.806,0,0,0-.48,3.061,17.144,17.144,0,0,0,.046,2.421c.068.206.571.434.936.685Z" transform="translate(0 0)" fill="#010101"/>
      <path id="Path_61314" data-name="Path 61314" d="M48.131,50.8c-2.512,2.17-7.378,2.764-14.6,5.55-1.85.708-6.784,2.832-7.971,5.048,4-2.307,5.482.868,5.8,4.134.3,3.061,1.827,4.66,5.756,4.568,4.043-.091,5.276,2.261,6.4,5.025,2.17-10.575,5.642-12.631,7.88-14.435,4.751-3.86-1.1-10.667-3.266-9.89Z" transform="translate(-22.697 -45.045)" fill="#8ac640"/>
      <path id="Path_61315" data-name="Path 61315" d="M29.865,51.28c-6.03,2.1-11.991,2.627-19,6.944-1.667,1.028-5.185,3.357-5.87,7.812,2.558-2.832,8.474-6.4,15.714-8.657,3.655-1.142,6.327-1.9,9.57-3.152-.228-1.462-.228-2.033-.411-2.947Z" transform="translate(-4.431 -45.53)" fill="#8ac640"/>
      <path id="Path_61316" data-name="Path 61316" d="M210.089,47.249a3.822,3.822,0,0,1-1.3,1.964s-.64.228-1.919-.48a1.646,1.646,0,0,1-.617-1.142,1.066,1.066,0,0,1,.365-.8s.366-.617.8-.594,1.165.091,1.393-.114C209.015,45.855,210.135,46.495,210.089,47.249ZM200.77,32.882a17.844,17.844,0,0,1-.251,1.9c-.023.137-.708.206-1.211.411.959,2.741,6.738,2.718,7.492,1.37a9.952,9.952,0,0,0-1.439-.777c-.343-.137-.32-.114-.343-.754s-.069-1.827-.114-2.147S201.318,32.562,200.77,32.882Z" transform="translate(-176.958 -28.982)" fill="#010101"/>
      <path id="Path_61317" data-name="Path 61317" d="M213.112,33.219s0,.662-.069,1.3a5.38,5.38,0,0,1-.091.708,4.776,4.776,0,0,1,1.005,1.9c1.1,2.444,3.632,1.233,4.682.069A8.828,8.828,0,0,0,217,36.326c-.343-.137-.183-.434-.206-1.073s-.114-1.576-.16-1.919S213.66,32.9,213.112,33.219Z" transform="translate(-189.072 -29.319)" fill="#f0efef"/>
      <g id="Group_496" data-name="Group 496" transform="translate(23.611 0.337)">
        <path id="Path_61318" data-name="Path 61318" d="M211.621,32.882s-.023.411-.091.891c.3.3.685.708.982.959.206.183.708.16,1.165.16a2.744,2.744,0,0,0,.936-.046,4.771,4.771,0,0,0,1.188-.982c-.023-.411-.046-.8-.068-.982C215.71,32.562,212.169,32.562,211.621,32.882Z" transform="translate(-211.42 -29.319)" fill="#010101"/>
        <path id="Path_61319" data-name="Path 61319" d="M214.15,13.007a5.057,5.057,0,0,1-.845-.069,1.344,1.344,0,0,1-.32-.137c-.16-.114-.32-.251-.5-.388-.366-.274-.388-.434-.388-.5a10.627,10.627,0,0,0-.046-2.65s-.16-.617.708-.777A11.224,11.224,0,0,1,214.15,8.3a7.3,7.3,0,0,1,1.393.183c.868.16.708.777.708.777a10.63,10.63,0,0,0-.046,2.65c0,.068-.023.228-.388.5a2.7,2.7,0,0,1-.822.525A5.059,5.059,0,0,1,214.15,13.007Z" transform="translate(-211.87 -7.708)" fill="#010101"/>
        <path id="Path_61320" data-name="Path 61320" d="M212.833,3.006a2.373,2.373,0,0,0-2.238.868,8.1,8.1,0,0,0,.137,2.261h.206a2.733,2.733,0,0,1-.114-.891c.023-.48.114-.457.046-.571-.091-.137-.274-.366.137-.594s1.051.183,1.827.206c.777-.023,1.439-.434,1.85-.206s.228.457.137.594.023.091.046.571a2.736,2.736,0,0,1-.114.891h.206a12.053,12.053,0,0,0,.16-2.216C214.728,3.417,214.34,3.029,212.833,3.006Zm7.24,18a3.772,3.772,0,0,1-1.279,1.873c-.183-.091-.16-.228-.32-.434-.046-.068-.206-.114-.274-.183s-.046-.183-.16-.274c-.091-.091-.16-.023-.251-.091-.091-.091-.114-.206-.183-.274-.046-.046-.228-.069-.274-.114-.114-.114-1.119-.32-1.073-.548a1.987,1.987,0,0,1,.274-.594s.434-.64.868-.617.845.114,1.074-.091c.251-.229,1.667.617,1.6,1.348Z" transform="translate(-210.553 -3.006)" fill="#010101"/>
        <path id="Path_61321" data-name="Path 61321" d="M266.46,73a2.843,2.843,0,0,1,2.421.594,2.6,2.6,0,0,1,.617,2.878,2.213,2.213,0,0,1,.365,2.1c1.507,1.279.845,3.243-.5,4.545a1.774,1.774,0,0,0-1.6-1.256c.046-.457-1.188-.822-.617-2.01-.868-.206-.845-.8-.982-1.53C266.049,77.588,266.46,73,266.46,73Z" transform="translate(-259.909 -65.095)" fill="#010101"/>
      </g>
      <path id="Path_61322" data-name="Path 61322" d="M263.466,76.462s1.667-.845,2.65.114a2.29,2.29,0,0,1,.411,2.741,2.208,2.208,0,0,1,.48,2.147c-.068.228-.571.228-.937.822.914-.525,1.485-.388,1.69.274a3.428,3.428,0,0,1-1.005,2.947c0-.023-.023-.046-.023-.069a3.484,3.484,0,0,1-.891,1.736.862.862,0,0,1-1.005.228,5.671,5.671,0,0,1-1.256-.662c-.365-.206-.16-.457-.16-.662a.469.469,0,0,1,.114-.206,1.84,1.84,0,0,1,.388-.5.957.957,0,0,1,.731-.388,1.768,1.768,0,0,0,1-.183c0-.8-.914-.822-.594-2.193.023-.069.137-.183.5-.228a1.942,1.942,0,0,1-1.188-.5,1.686,1.686,0,0,1-.548-.982C263.694,80.185,263.466,76.462,263.466,76.462Z" transform="translate(-233.83 -67.583)" fill="#f0efef"/>
      <path id="Path_61323" data-name="Path 61323" d="M167.149,54.589a4.131,4.131,0,0,0-2.193-1.462c-.388-.114-.64.206-1.028.434-.114-.069-.617-.3-.891-.137a6.132,6.132,0,0,1-.731.434,1.236,1.236,0,0,0-.8.046,2.264,2.264,0,0,0-1.188.891c-.274.982,4.842.251,4.842.251Z" transform="translate(-142.333 -47.149)" fill="#010101"/>
      <path id="Path_61324" data-name="Path 61324" d="M169.179,56.576c-.731-.251-.617-1.1-2.238-1.233-.32-.023-.525.228-.754.388a1.427,1.427,0,0,1,.3.48,1.9,1.9,0,0,0-.937-.594c-.343-.068-.571.183-.936.366a2.375,2.375,0,0,1,.228.32.935.935,0,0,0-.982-.114,2.522,2.522,0,0,0-1.3.959c-.274.982,4.614-.114,4.614-.114Z" transform="translate(-144.317 -49.135)" fill="#8ac640"/>
      <path id="Path_61325" data-name="Path 61325" d="M258.018,62.828s0-.251-.023-.48c0-.046-.183-.16-.183-.206l-.046-.046a.869.869,0,0,1,.639-.091.906.906,0,0,1,.457.48c.525-.183.571.023.822.3.548-.114.617.091.959.594a4.049,4.049,0,0,0-1.211.068A1.893,1.893,0,0,1,258.018,62.828Z" transform="translate(-228.862 -55.022)" fill="#010101"/>
      <path id="Path_61326" data-name="Path 61326" d="M259.188,66.354s.137-.114.091-.137c.251-.137.594-.3.754.137.525-.183.594.069.845.343.639-.3.685.068.731.228a9.02,9.02,0,0,0-.914.069A2.114,2.114,0,0,1,259.188,66.354Z" transform="translate(-230.123 -58.662)" fill="#8ac640"/>
      <path id="Path_61327" data-name="Path 61327" d="M177.637,63.5a7.273,7.273,0,0,0,2.4.388c1.1-.091,2.969-.183,3.974.411A3.845,3.845,0,0,1,186,64.186c.959.251,2.718,1.9,2.193,3.632a1.347,1.347,0,0,1-.685.411,2.364,2.364,0,0,1-.137,1.416,7.284,7.284,0,0,0-1.051,3.449c-.023.274-.068.845-.114,1.119-1.782-.068-4.522-.731-7.218-.685.023-.3.046-.48.069-.777h.068c-.137-.754-.183-1.142-.32-1.713a7.56,7.56,0,0,1-2.558-2.4c-.754-1.211,1.393-5.139,1.393-5.139Zm8.817,12.334s1.416,5.071-.251,7.195a3.033,3.033,0,0,1-.32,2.033c-.091.457-.206.868-.274,1.325a32.3,32.3,0,0,0-.937,5.733L183.3,92.1a14.308,14.308,0,0,0-.639-3.358c-.274-.662-1.348-1.553-1.3-2.444.046-.685.183-1.256,1.348-2.17.091-1.325-1.233-2.581-1.028-7.515Z" transform="translate(-156.338 -56.38)" fill="#010101"/>
      <path id="Path_61328" data-name="Path 61328" d="M190.135,75.629c.365,2.33,1.211,5.779-.32,7.469a3.444,3.444,0,0,1,.023,1.3,5.328,5.328,0,0,1-.251.891,8.2,8.2,0,0,0-.388,1.827,32.053,32.053,0,0,0-.434,5.025l-1.371-.023a14.306,14.306,0,0,0-.64-3.357,5.965,5.965,0,0,1-.891-2.124c-.046-.685.434-2.056,1.576-2.01-.068-2.764-1.348-2.216-1.69-7.971ZM181.73,63.5a5.408,5.408,0,0,0,1.051.206,13.479,13.479,0,0,0,1.667-.023,6.749,6.749,0,0,1,3.677.388,3.538,3.538,0,0,1,1.188-.137,6.17,6.17,0,0,1,.868.343,2.888,2.888,0,0,1,1.53,3.426c-.046.114-.365,0-.731.114a3.026,3.026,0,0,1-.251,1.827,6.6,6.6,0,0,0-.8,3.7c-2.4-.114-3.472-.274-5.847-.388a13.722,13.722,0,0,1-.365-2.124,2.276,2.276,0,0,0,.754-.571,1.75,1.75,0,0,1-1.371-.16,6.813,6.813,0,0,1-1.507-1.439c-.046-.046-.3.708-.868.731-.206-.3.662-1.142.5-1.462C180.656,66.767,181.73,63.5,181.73,63.5Z" transform="translate(-160.431 -56.38)" fill="#f0efef"/>
      <path id="Path_61329" data-name="Path 61329" d="M205.941,150.587s.046.822.046,1.028c0,.228.183.914.206,1.233a5.14,5.14,0,0,1-3.335,1.782c-1.964.411-4.568-2.672-4.568-2.672.069-.3.3-1.165.457-1.622a.725.725,0,0,0,.069-.206C199.02,149.834,205.941,150.587,205.941,150.587Z" transform="translate(-176.053 -133.234)" fill="#010101"/>
      <path id="Path_61330" data-name="Path 61330" d="M211.587,147.046a6.586,6.586,0,0,0,.16,1.348,11.661,11.661,0,0,1,.3,1.53c0,1.325-1.736,1.1-3.2,1.142-1.964.411-3.632-2.672-3.632-2.672a13.049,13.049,0,0,1,.434-1.622c.023-.274.069-.617.091-.777a58.364,58.364,0,0,1,5.893.274,1.981,1.981,0,0,1-.046.777Z" transform="translate(-182.202 -129.624)" fill="#f0efef"/>
      <path id="Path_61331" data-name="Path 61331" d="M181.182,165.456s-1.211-2.7-4.842-1.9c-.868,2.444-2.033,5.253-1.279,8.291-.754,1.028-1.622,1.6-1.622,3.495a12.4,12.4,0,0,0,.091,2.216l2.672.137a7.981,7.981,0,0,0,1.211-2.33,4.956,4.956,0,0,0,.114-1.667,1.819,1.819,0,0,0,.525-1.073,5.2,5.2,0,0,0,2.056-2.353C180.817,168.768,180.634,167.466,181.182,165.456Z" transform="translate(-153.99 -145.088)" fill="#010101"/>
      <path id="Path_61332" data-name="Path 61332" d="M186.464,164.838c-.068-.251-.982-2.718-4.363-1.987-1.987,5.3-1.256,7.492-.959,8.451-1.348,1.713-1.964,2.078-1.69,5.55h1.782a5.3,5.3,0,0,0,1.051-3.495c0-.069-.251.137-.434.365.137-.708.525-.845.822-1.279a1.353,1.353,0,0,0,.251-.822,5.92,5.92,0,0,0,2.535-3.814A10.917,10.917,0,0,1,186.464,164.838Z" transform="translate(-159.272 -144.469)" fill="#f0efef"/>
      <g id="Group_497" data-name="Group 497" transform="translate(14.627 6.843)">
        <path id="Path_61333" data-name="Path 61333" d="M165.054,148.846a4.8,4.8,0,0,1,1.165.206,1.206,1.206,0,0,1,.731.525c.206.229.708.571.617.914-.046.183-.16.228-.32.388-.069.069-.571.617-.685.685-.069.046-.16.114-.228.16l-.343.228a1.071,1.071,0,0,1-.64.16,1.506,1.506,0,0,1-.937-.411s-.046-.183.046-.274a3.293,3.293,0,0,1-.617-.685,1.157,1.157,0,0,1-.046-.868c.046-.206.936-.777,1.256-1.028Zm.571,22.224-.069.571s-.206.251-1.736.228c-1.553-.023-1.964-.5-2.1-.754l-.091-.594s.3-.434.365-.434c.5.046,2.216.731,3.4.914C165.511,171,165.534,171.047,165.625,171.07Zm3.312-1.165c0,.251-.023.251-.023.5a4.385,4.385,0,0,0,2.261.3c1.9-.046,3.655.571,5.8.206L177,170.5l-.206-.023-7.606-.617Z" transform="translate(-158.131 -138.998)" fill="#010101"/>
        <path id="Path_61334" data-name="Path 61334" d="M142.914,92.734h.571c1.234-.046,2.4.228,3.655.3.662-.023,1.485-.183,1.416-.662l-6.487-.548C141.68,92.254,141.977,92.619,142.914,92.734Zm-7.446-9.616a6.72,6.72,0,0,0,3.86.845,4.952,4.952,0,0,1-1.028,2.764,7.4,7.4,0,0,0-1.028,3.632c.023.365.228.685-.046,1.165a13.1,13.1,0,0,0,.64,1.256c.183.366.274.777-.937.8-1.233.023-3.221-.114-2.946-1.073.137-.5.525-1.028.571-1.234a2.216,2.216,0,0,1,.434-1.233,8.869,8.869,0,0,0,.16-3.266A7.746,7.746,0,0,1,135.468,83.118ZM137.592,64.5c1.622-2.17.251-3.906-2.353-3.38a2.484,2.484,0,0,0-2.17,2.261c-.343.046-1.119.091-1.507,1.507a3.217,3.217,0,0,1-.982,1.85c-.343.388.023,1.188.274,1.759.845,1.964,3.449,2.147,5.208,3.632a2.534,2.534,0,0,0,1.393-1.256c-1.485-1.759-1.165-2.444-1.759-3.358A2.853,2.853,0,0,0,137.592,64.5Z" transform="translate(-130.44 -61.027)" fill="#010101"/>
      </g>
      <path id="Path_61335" data-name="Path 61335" d="M144.126,66.491c.091-.137.251-.434.32-.548.023-.023.274.411.3.388.617-1.005.777-2.467.068-2.6a4.047,4.047,0,0,1-.708-.183,2.845,2.845,0,0,0-1.6-.023,2.236,2.236,0,0,0-2.01,1.964,1.877,1.877,0,0,1,.914,1.119c-.343-.48-.937-1.005-1.645-.548-.754.48-.365,1.576-1.37,2.718-.343.388-.3.845.068,1.759.594,1.439,3.4,2.216,4.934,3.586a2.067,2.067,0,0,0,.8-.8,8.121,8.121,0,0,1-1.736-2.809,4.61,4.61,0,0,0-1.576-1.964A4.162,4.162,0,0,1,141.8,69a.91.91,0,0,0,.777.069A3.018,3.018,0,0,0,144.126,66.491Z" transform="translate(-122.667 -56.31)" fill="#f0efef"/>
      <path id="Path_61336" data-name="Path 61336" d="M204.009,86.82c-.069.868-.708.434-1.051.274a5.307,5.307,0,0,0-2.17-.5,11.5,11.5,0,0,0-2.718.3c-1.233.343-1.6.32-2.147.046a16.356,16.356,0,0,1-1.507-1.028.814.814,0,0,0,.206.525,4.215,4.215,0,0,0,1.85,1.119,2.012,2.012,0,0,0,1.165-.046,7.757,7.757,0,0,1,5.984.5c.091.046.411-.091.548-.3C204.351,87.414,204.009,86.82,204.009,86.82Z" transform="translate(-172.614 -76.273)" fill="#010101"/>
      <path id="Path_61337" data-name="Path 61337" d="M187.291,171.658a4.418,4.418,0,0,1,.662.388.5.5,0,0,1-.3-.091A3.227,3.227,0,0,1,187.291,171.658Z" transform="translate(-166.289 -152.409)" fill="#0a1825"/>
      <path id="Path_61338" data-name="Path 61338" d="M218.487,5.613c-.069-.206-.571-.571-1.736-.571-1.256,0-1.622.388-1.644.594,0,.069-.091.8-.114,1.1,0,0,0,.365.023.914.023.365.114.571.16,1.051a2.584,2.584,0,0,0,.434,1.233,1.052,1.052,0,0,0,.32.16,4.674,4.674,0,0,0,1.69,0,1.248,1.248,0,0,0,.64-.891c.091-.48.183-.822.206-1.119.046-.3.069-.959.091-1.142A4.8,4.8,0,0,0,218.487,5.613Z" transform="translate(-190.883 -4.477)" fill="#f0efef"/>
      <path id="Path_61339" data-name="Path 61339" d="M223.39,261.892s1.211.525,4.2.068c0,0-.845,4.248-.457,6.373,0,0,.388.548,3.266,1.6,0,0,1.279.32,1.233.959,0,0,.046.137-1.507.091s-3.015-.32-4.043-.32-2.124.046-2.307-.251c-.206-.274.046-.982.343-1.393.32-.434.228-.754.206-1.53-.069-2.033-1.622-4.134-.937-5.6Z" transform="translate(-198.185 -232.524)" fill="#010101"/>
      <path id="Path_61340" data-name="Path 61340" d="M222.049,265.262a3.972,3.972,0,0,0,.251,1.941,10.016,10.016,0,0,1,.845,2.741c.114,1.37.137,1.553-.251,2.353s-.5,1.53.845,1.553a21.961,21.961,0,0,1,3.449.183,7.852,7.852,0,0,0,2.6.16c.754-.114.914-.366.594-.594a16.965,16.965,0,0,1-2.216-.937c-.548-.411-2.1-1.1-2.124-1.279a23.582,23.582,0,0,1,.023-3.586c.114-.731.274-1.782.32-2.056s.274-.548-.114-.457a13.221,13.221,0,0,1-2.946.228,5.78,5.78,0,0,1-1.279-.251Z" transform="translate(-197.096 -235.506)" fill="#8ac640"/>
      <path id="Path_61341" data-name="Path 61341" d="M222.4,277.892a3.653,3.653,0,0,0,1.393.32,2.125,2.125,0,0,0,.091,1.211c.251.457-1.827.183-1.827.183l-.091-1.622Zm6.053,1.964a.57.57,0,0,0,.32-.914c-.32-.388-.594-.457-.183-.48a7.6,7.6,0,0,1,1.919.891l-.777.708Zm-6.9-8.131a6.188,6.188,0,0,0,2.01.206,9.331,9.331,0,0,0,2.375-.343c.662-.228.388.251.388.251l-.365.343a6.485,6.485,0,0,1-2.284.32,7.975,7.975,0,0,1-2.17-.206Zm.046,1.142a6.189,6.189,0,0,0,2.01.206,7.577,7.577,0,0,0,2.261-.274c.274-.091.114.3.114.3l-.114.206a7.035,7.035,0,0,1-2.284.3,6.94,6.94,0,0,1-1.964-.16Z" transform="translate(-196.671 -241.078)" fill="#010101" opacity="0.3"/>
      <path id="Path_61342" data-name="Path 61342" d="M223.39,261.892a8.58,8.58,0,0,0,4.226.228s-.868,4.089-.48,6.19c0,0,.388.548,3.266,1.6,0,0,1.279.32,1.233.959,0,0,.046.137-1.507.091s-3.015-.32-4.043-.32-2.124.046-2.307-.251c-.206-.274.046-.982.343-1.393.32-.434.228-.754.206-1.53C224.258,265.455,222.7,263.354,223.39,261.892Z" transform="translate(-198.185 -232.524)" fill="none"/>
      <path id="Path_61343" data-name="Path 61343" d="M223.39,261.892a8.738,8.738,0,0,0,4.226.206s-.868,4.111-.48,6.213c0,0,.388.548,3.266,1.6,0,0,1.279.32,1.233.959,0,0,.046.137-1.507.091s-3.038-.48-4.043-.32c-1.073.183-2.124.114-2.307-.251a1.707,1.707,0,0,1,.343-1.393c.32-.434.228-.754.206-1.53C224.258,265.455,222.7,263.354,223.39,261.892Z" transform="translate(-198.185 -232.524)" fill="none"/>
      <path id="Path_61344" data-name="Path 61344" d="M208.881,140.7a7.721,7.721,0,0,0,2.764,1.233,13.952,13.952,0,0,0,3.358-.069l-.046.32a12.635,12.635,0,0,1-4.317-.137c-1.873-.5-1.667-.617-1.667-.617Z" transform="translate(-185.458 -124.921)" fill="#010101"/>
      <path id="Path_61345" data-name="Path 61345" d="M165.7,266.338a3.811,3.811,0,0,0,1.9.251,19.852,19.852,0,0,1,.251-2.284,13.6,13.6,0,0,0,1.233-3.517,14.314,14.314,0,0,1-2.627-.525C165.727,262.5,165.979,264.419,165.7,266.338Zm1.53,1.439c.16.046.274.228.32.114.091-.206-.16-.594-.183-.868V267a3.013,3.013,0,0,0-1.507-.114c-.16.3-.411.251-.5.845-.046.3.32.046.662.023-.617.411-1.325.937-1.439,1.393-.137.64.091.822.777,1.165a7.374,7.374,0,0,0,1.85.137c.617-.114.731-.411.548-.822A8.29,8.29,0,0,1,167.235,267.777Z" transform="translate(-146.096 -231.077)" fill="#f0efef"/>
      <path id="Path_61346" data-name="Path 61346" d="M189.5,62.686a4.039,4.039,0,0,0,2.193.3c.091,0,1.005-.16,1.051-.137.091.023.091.091.091.091a2.964,2.964,0,0,1-1.119.228,4.889,4.889,0,0,1-2.078-.228C189.069,62.686,189.5,62.686,189.5,62.686Zm7.766.434a6.059,6.059,0,0,1,1.416.845c.343.366.16.343.091.251a5.448,5.448,0,0,0-1.073-.708,1.969,1.969,0,0,1-.617-.365C197.086,63.1,197.269,63.12,197.269,63.12Z" transform="translate(-168.113 -55.657)" fill="#010101"/>
      <path id="Path_61347" data-name="Path 61347" d="M184.376,151.027a2.23,2.23,0,0,1,1.782.571c.228.228.594.48.548.708a1.184,1.184,0,0,1-.251.388c-.068.091-.274.3-.343.365-.091.069-.411.32-.48.365s-.16.16-.228.183a.792.792,0,0,1-.708-.091c-.228-.114.046-.137-.206-.32-.617-.434-.959-.731-.708-1.576C183.805,151.461,184.056,151.278,184.376,151.027Z" transform="translate(-163.1 -134.084)" fill="#f0efef"/>
      <path id="Path_61348" data-name="Path 61348" d="M68.35,102.639c-2.056.822-7.286,3.426-8.771,4.226,1.233.777,1.8,2.649,1.987,4.545.023.183.046.343.069.525a2.2,2.2,0,0,0,.068.343.137.137,0,0,0,.023.091c1.348-3.677,6.167-7.56,6.35-7.857.091-.137-.114-.731.206-1.3.411-.731,1.211-1.051.069-.571Zm4.888,17.245c1.051-2.1,1.073-4.111,1.051-6.464,0-.982.708-2.376.343-1.987-1.371,1.53-4.819,4.408-7.309,4.568C70.817,115.887,72.187,117.645,73.238,119.884Z" transform="translate(-52.898 -90.927)" fill="#010101" opacity="0.4"/>
      <path id="Path_61349" data-name="Path 61349" d="M41.654,110.608a74.34,74.34,0,0,1,9.662-5.025c1.622-.525,1.119-1.142,1.119-1.142a100.072,100.072,0,0,0-10.507,5.276" transform="translate(-36.983 -92.729)" fill="#010101"/>
      <path id="Path_61350" data-name="Path 61350" d="M189.549,49.573c-.525-.206-.936.411-.8,1.005s1.371,1.256,1.3,3.426a6.216,6.216,0,0,1-.434,2.512l-.868-1.1a11.407,11.407,0,0,0-.434-2.832c-.3-.365-1.233-1.028-1.6-1.37s.411-.8.365-1.439a6.6,6.6,0,0,1,.388-1.85Zm3.175,9.73a39.848,39.848,0,0,0,.5,5.459c.16,1.211.365,1.3,0,1.85-.365.525-.845,1.393-.845,1.393l-1.576-.137a15.528,15.528,0,0,0,1.325-1.9,16.663,16.663,0,0,0-.639-2.558Zm-3.038-15.988a2.019,2.019,0,0,0,1.325,1.233c.365.137,1.8.32,2.375-.32.251-.3.091-1.1.091-1.1l-1.3,1.051-1.759-.32-.206-.525Z" transform="translate(-165.692 -38.295)" fill="#010101" opacity="0.4"/>
      <path id="Path_61351" data-name="Path 61351" d="M213.749,58.816a9.291,9.291,0,0,0,2.49.822c.411.091,1.073-.434,1.393-.571a1.421,1.421,0,0,1,1.622.365c.069.069-.16.365-.16.365a2.63,2.63,0,0,1-.343-.114,1.032,1.032,0,0,0-.617-.137c-1.142.137-1.325.525-2.33.3a6.471,6.471,0,0,0-2.238-.365" transform="translate(-189.617 -52.221)" fill="#8ac640" stroke="#010101" stroke-linejoin="round" stroke-miterlimit="10" stroke-width="1.586"/>
      <path id="Path_61352" data-name="Path 61352" d="M213,59.427a19.7,19.7,0,0,0,2.627.754c.411.091,1.073-.32,1.393-.525a1.34,1.34,0,0,1,1.645.32c.228.251.32.411.32.48,0,.091-.274,0-.274,0a2.965,2.965,0,0,1-.48-.183,1.124,1.124,0,0,0-.639-.206c-1.142.137-1.371.525-2.353.3A5.925,5.925,0,0,0,212.957,60" transform="translate(-189.077 -52.763)" fill="#8ac640"/>
      <path id="Path_61353" data-name="Path 61353" d="M72.378,157.077c-.046-.046.046-.091,0-.091a1.317,1.317,0,0,1-.937-.548,5.341,5.341,0,0,0-5.025-2.284c-3.906.091-5.459-1.507-5.756-4.568a6.913,6.913,0,0,0-1.553-4.2l-.548.343c1.051.914,1.393,2.4,1.622,4.431.365,3.061,2.832,4.477,5.71,4.522,2.992.046,4.066.662,5.185,2.17a1.794,1.794,0,0,0,1.1.708Z" transform="translate(-51.992 -129.08)" fill="#010101"/>
      <path id="Path_61354" data-name="Path 61354" d="M270.334,118.7a2.6,2.6,0,0,0,.617,1.325c.16.16.183.206.046.206s-1.142-.046-1.142-.046l-.274-.48Z" transform="translate(-239.35 -105.389)" fill="#010101" opacity="0.4"/>
    </g>
    <text id="Green_Sock" data-name="Green Sock" transform="translate(2528 -6663)" fill="#88ce01" font-size="11" font-family="YuGothicUI-Semibold, Yu Gothic UI" font-weight="600"><tspan x="0" y="0" fill="#000">Green </tspan><tspan y="0" fill="#88ce01">Sock</tspan></text>
  </g>
</svg>
